<svg width="26" height="30" viewBox="0 0 26 30" fill="none" xmlns="http://www.w3.org/2000/svg">
<path fill-rule="evenodd" clip-rule="evenodd" d="M7.66667 0.666748C8.21895 0.666748 8.66667 1.11446 8.66667 1.66675V3.33341H17.3333V1.66675C17.3333 1.11446 17.781 0.666748 18.3333 0.666748C18.8856 0.666748 19.3333 1.11446 19.3333 1.66675V3.33341H22.3333C24.3584 3.33341 26 4.97504 26 7.00008V25.6667C26 27.6918 24.3584 29.3334 22.3333 29.3334H3.66667C1.64162 29.3334 0 27.6918 0 25.6667V7.00008C0 4.97504 1.64162 3.33341 3.66667 3.33341H6.66667V1.66675C6.66667 1.11446 7.11438 0.666748 7.66667 0.666748ZM6.66667 5.33341H3.66667C2.74619 5.33341 2 6.07961 2 7.00008V11.3334H24V7.00008C24 6.07961 23.2538 5.33341 22.3333 5.33341H19.3333V7.00008C19.3333 7.55237 18.8856 8.00008 18.3333 8.00008C17.781 8.00008 17.3333 7.55237 17.3333 7.00008V5.33341H8.66667V7.00008C8.66667 7.55237 8.21895 8.00008 7.66667 8.00008C7.11438 8.00008 6.66667 7.55237 6.66667 7.00008V5.33341ZM24 13.3334H2V25.6667C2 26.5872 2.74619 27.3334 3.66667 27.3334H22.3333C23.2538 27.3334 24 26.5872 24 25.6667V13.3334Z" fill="#869198"/>
</svg>
